<svg xmlns="http://www.w3.org/2000/svg" xmlns:xlink="http://www.w3.org/1999/xlink" width="472.386" height="29.75" viewBox="0 0 472.386 29.75">
  <defs>
    <style>
      .cls-1 {
        fill: url(#linear-gradient);
      }
    </style>
    <linearGradient id="linear-gradient" x1="-0.009" y1="0.643" x2="1.009" y2="0.5" gradientUnits="objectBoundingBox">
      <stop offset="0" stop-color="#c634c7"/>
      <stop offset="0.523" stop-color="#fc8bfd"/>
      <stop offset="1" stop-color="#ffd4ff"/>
    </linearGradient>
  </defs>
  <path id="Path_58" data-name="Path 58" class="cls-1" d="M9.214-8.533A10.64,10.64,0,0,1,7.421-1.951,5.73,5.73,0,0,1,2.623.4,5.672,5.672,0,0,1,.332,0V-2.756a3.876,3.876,0,0,0,2.324.647q3.769,0,3.769-6.392V-23.807H9.214ZM34.43,0H31.342L28.819-6.674H18.725L16.351,0h-3.1l9.131-23.807h2.889ZM27.906-9.181,24.171-19.324a9.713,9.713,0,0,1-.365-1.594h-.066a8.892,8.892,0,0,1-.382,1.594l-3.7,10.144ZM55.048-1A13.963,13.963,0,0,1,48.474.4a10.6,10.6,0,0,1-8.135-3.271,12.068,12.068,0,0,1-3.055-8.583,12.649,12.649,0,0,1,3.437-9.23,11.664,11.664,0,0,1,8.716-3.52,13.974,13.974,0,0,1,5.611.979v2.972A11.379,11.379,0,0,0,49.4-21.682a8.661,8.661,0,0,0-6.649,2.739,10.32,10.32,0,0,0-2.548,7.321A9.819,9.819,0,0,0,42.589-4.69a8.106,8.106,0,0,0,6.25,2.582A11.726,11.726,0,0,0,55.048-3.7Zm24.1,1H76.363V-10.857H64.045V0H61.256V-23.807h2.789v10.442H76.363V-23.807h2.789Zm17.2.4a10.45,10.45,0,0,1-8.11-3.337,12.377,12.377,0,0,1-3.046-8.683q0-5.744,3.1-9.164a10.843,10.843,0,0,1,8.45-3.42,10.215,10.215,0,0,1,7.944,3.32,12.422,12.422,0,0,1,3.013,8.683q0,5.827-3.088,9.214A10.642,10.642,0,0,1,96.35.4Zm.2-22.08a7.675,7.675,0,0,0-6.093,2.706,10.476,10.476,0,0,0-2.341,7.105A10.549,10.549,0,0,0,90.4-4.79,7.445,7.445,0,0,0,96.35-2.108a7.816,7.816,0,0,0,6.176-2.557q2.258-2.557,2.258-7.155,0-4.715-2.191-7.288A7.514,7.514,0,0,0,96.549-21.682ZM113.747,0V-23.807h6.773a7.4,7.4,0,0,1,4.9,1.511,4.883,4.883,0,0,1,1.81,3.935,5.79,5.79,0,0,1-1.1,3.52,5.909,5.909,0,0,1-3.021,2.125v.066a6.057,6.057,0,0,1,3.852,1.818,5.591,5.591,0,0,1,1.444,3.993,6.224,6.224,0,0,1-2.191,4.947A8.156,8.156,0,0,1,120.687,0Zm2.789-21.283V-13.6h2.855a5.422,5.422,0,0,0,3.6-1.1,3.844,3.844,0,0,0,1.312-3.113q0-3.47-4.565-3.47Zm0,10.193v8.566h3.785a5.671,5.671,0,0,0,3.81-1.162,3.981,3.981,0,0,0,1.353-3.187q0-4.217-5.744-4.217Zm56.957-12.717L166.77,0H163.5l-4.9-17.4a10.892,10.892,0,0,1-.382-2.424h-.066a12.3,12.3,0,0,1-.432,2.391L152.791,0h-3.237l-6.973-23.807h3.071l5.063,18.262a11.986,11.986,0,0,1,.4,2.391h.083a14.112,14.112,0,0,1,.515-2.391l5.263-18.262h2.673l5.047,18.395a13.457,13.457,0,0,1,.4,2.225h.066a13.335,13.335,0,0,1,.448-2.291l4.864-18.328ZM191.007,0H178.39V-23.807h12.086v2.523h-9.3v7.919h8.6v2.507h-8.6v8.334h9.828Zm4.83-.963V-4.25a6.384,6.384,0,0,0,1.353.9,10.962,10.962,0,0,0,1.66.672,13.216,13.216,0,0,0,1.751.423,9.765,9.765,0,0,0,1.627.149,6.373,6.373,0,0,0,3.843-.955,3.229,3.229,0,0,0,1.27-2.748,3.226,3.226,0,0,0-.423-1.677,4.769,4.769,0,0,0-1.17-1.3,11.614,11.614,0,0,0-1.768-1.129q-1.021-.54-2.2-1.137-1.245-.631-2.324-1.278a10.071,10.071,0,0,1-1.876-1.428,5.955,5.955,0,0,1-1.253-1.768,5.473,5.473,0,0,1-.457-2.316,5.446,5.446,0,0,1,.714-2.831,6.123,6.123,0,0,1,1.876-1.984,8.5,8.5,0,0,1,2.648-1.162,12.125,12.125,0,0,1,3.03-.382,11.611,11.611,0,0,1,5.13.847v3.138a9.3,9.3,0,0,0-5.412-1.461,8.9,8.9,0,0,0-1.826.191,5.158,5.158,0,0,0-1.627.623,3.6,3.6,0,0,0-1.162,1.112,2.952,2.952,0,0,0-.448,1.66,3.418,3.418,0,0,0,.34,1.577,3.866,3.866,0,0,0,1,1.212,10,10,0,0,0,1.619,1.063q.955.515,2.2,1.129,1.278.631,2.424,1.328a11.079,11.079,0,0,1,2.009,1.544,6.861,6.861,0,0,1,1.37,1.876,5.273,5.273,0,0,1,.506,2.357,5.978,5.978,0,0,1-.689,2.98,5.654,5.654,0,0,1-1.859,1.984,8.121,8.121,0,0,1-2.7,1.1A14.774,14.774,0,0,1,201.8.4,13.125,13.125,0,0,1,200.4.307q-.83-.091-1.693-.266a13.818,13.818,0,0,1-1.635-.432A5.088,5.088,0,0,1,195.837-.963Zm34.613-20.32h-6.873V0h-2.789V-21.283h-6.856v-2.523H230.45ZM253.441,0h-2.789V-10.857H238.334V0h-2.789V-23.807h2.789v10.442h12.318V-23.807h2.789Zm42.547,0h-2.772V-15.971q0-1.893.232-4.632h-.066a14.807,14.807,0,0,1-.714,2.308L284.534,0h-1.361l-8.118-18.162a14.23,14.23,0,0,1-.714-2.44h-.066q.133,1.428.133,4.665V0h-2.689V-23.807H275.4l7.3,16.6a21.257,21.257,0,0,1,1.1,2.855h.1q.714-1.959,1.146-2.922L292.5-23.807h3.486Zm9.877-2.175L303.342.847,302.047-.232,304.67-3.4a12.633,12.633,0,0,1-2.623-8.218,13.156,13.156,0,0,1,3.1-9.139,10.8,10.8,0,0,1,8.458-3.445,10.636,10.636,0,0,1,6.674,2.142l2.241-2.689,1.295,1.046L321.5-20.951a12.413,12.413,0,0,1,3.055,8.749q0,5.827-3.088,9.214A10.642,10.642,0,0,1,313.2.4,10.7,10.7,0,0,1,305.865-2.175Zm12.717-17.813a7.966,7.966,0,0,0-5.18-1.693,7.649,7.649,0,0,0-6.1,2.723,10.514,10.514,0,0,0-2.333,7.089A11.092,11.092,0,0,0,306.6-5.678Zm1.112,1.229L307.658-4.383A7.338,7.338,0,0,0,313.2-2.108a7.8,7.8,0,0,0,6.176-2.565,10.455,10.455,0,0,0,2.258-7.147A11.387,11.387,0,0,0,319.694-18.76ZM342.952,0H330.6V-23.807h2.789V-2.523h9.563Zm17.364,0H347.964V-23.807h2.789V-2.523h9.563Zm17.63,0H365.328V-23.807h12.086v2.523h-9.3v7.919h8.6v2.507h-8.6v8.334h9.828Zm23.739-1.627A15.92,15.92,0,0,1,393.715.4a10.889,10.889,0,0,1-8.243-3.287,12.056,12.056,0,0,1-3.146-8.7,12.379,12.379,0,0,1,3.495-9.073,11.913,11.913,0,0,1,8.857-3.544,15.072,15.072,0,0,1,6.524,1.262v3.088a12.53,12.53,0,0,0-6.84-1.826,8.545,8.545,0,0,0-6.558,2.756,10.079,10.079,0,0,0-2.557,7.139,10.085,10.085,0,0,0,2.374,7.1,8.321,8.321,0,0,0,6.441,2.582,9.953,9.953,0,0,0,4.831-1.112V-9.895h-5.213v-2.523h8ZM427,0h-3.088l-2.523-6.674H411.295L408.921,0h-3.1L414.6-22.877a2.865,2.865,0,0,1-1.677-2.723,3.091,3.091,0,0,1,1-2.391,3.59,3.59,0,0,1,2.523-.913,3.284,3.284,0,0,1,2.391.9,3.071,3.071,0,0,1,.93,2.3,2.955,2.955,0,0,1-1.594,2.756ZM416.342-27.542a1.859,1.859,0,0,0-1.361.523,1.775,1.775,0,0,0-.531,1.32,1.673,1.673,0,0,0,1.893,1.893,1.828,1.828,0,0,0,1.345-.548,1.828,1.828,0,0,0,.548-1.345,1.74,1.74,0,0,0-.548-1.328A1.89,1.89,0,0,0,416.342-27.542Zm4.134,18.361L416.74-19.324a9.713,9.713,0,0,1-.365-1.594h-.066a8.892,8.892,0,0,1-.382,1.594l-3.7,10.144ZM448.929,0h-3.32l-3.984-6.674a14.534,14.534,0,0,0-1.062-1.585,6.057,6.057,0,0,0-1.054-1.071,3.651,3.651,0,0,0-1.162-.606,4.779,4.779,0,0,0-1.4-.191h-2.291V0h-2.789V-23.807h7.105a10.126,10.126,0,0,1,2.88.39,6.445,6.445,0,0,1,2.291,1.187,5.516,5.516,0,0,1,1.519,1.984,6.579,6.579,0,0,1,.548,2.781,6.7,6.7,0,0,1-.374,2.283,5.961,5.961,0,0,1-1.062,1.851,6.441,6.441,0,0,1-1.66,1.386,8.475,8.475,0,0,1-2.183.888v.066a5.021,5.021,0,0,1,1.038.606,5.71,5.71,0,0,1,.838.805,10.667,10.667,0,0,1,.789,1.054q.39.589.872,1.37ZM434.652-21.283v8.633h3.785a5.741,5.741,0,0,0,1.934-.315,4.477,4.477,0,0,0,1.536-.9,4.1,4.1,0,0,0,1.013-1.444,4.835,4.835,0,0,0,.365-1.917,3.732,3.732,0,0,0-1.237-2.98,5.313,5.313,0,0,0-3.578-1.071ZM453.56,0V-23.807h6.574q12.584,0,12.584,11.6a11.694,11.694,0,0,1-3.495,8.857A12.964,12.964,0,0,1,459.868,0Zm2.789-21.283v18.76H459.9A10.083,10.083,0,0,0,467.19-5.03a9.4,9.4,0,0,0,2.606-7.105q0-9.147-9.729-9.147Z" transform="translate(-0.332 28.903)"/>
</svg>
